<svg xmlns="http://www.w3.org/2000/svg" width="20" height="20" viewBox="0 0 24 24" fill="currentColor"><path d="M12 10.8c-1.087-2.114-4.046-6.053-6.798-7.995C2.566.944 1.561 1.266.902 1.565.139 1.908 0 3.08 0 3.768c0 .69.378 5.65.624 6.479.785 2.627 3.624 3.496 6.204 3.226-4.562.782-8.158 3.074-4.702 8.543C5.706 27.203 14.032 19.558 12 15.3c2.032 4.258 6.142 11.752 9.874 6.716 3.456-5.469-.14-7.761-4.702-8.543 2.58.27 5.42-.599 6.204-3.226.246-.828.624-5.788.624-6.479 0-.688-.139-1.86-.902-2.203-.659-.3-1.664-.62-4.3 1.24C16.046 4.748 13.087 8.687 12 10.8z"/></svg>
