<svg xmlns="http://www.w3.org/2000/svg" width="20" height="20" viewBox="0 0 24 24" fill="currentColor"><path d="M23.268 5.313c-.35-2.578-2.617-4.61-5.304-5.004C17.51.242 15.792 0 11.813 0h-.03c-3.98 0-4.835.242-5.288.309C3.882.692 1.496 2.518.917 5.127.64 6.412.61 7.837.661 9.143c.074 1.874.088 3.745.26 5.611.118 1.24.325 2.47.62 3.68.55 2.237 2.777 4.098 4.96 4.857 2.336.792 4.849.923 7.256.38.265-.061.527-.132.786-.213.585-.184 1.27-.39 1.774-.753a.057.057 0 0 0 .023-.043v-1.809a.052.052 0 0 0-.02-.041.053.053 0 0 0-.046-.01 20.282 20.282 0 0 1-4.709.545c-2.73 0-3.463-1.284-3.674-1.818a5.593 5.593 0 0 1-.319-1.433.053.053 0 0 1 .066-.054 19.648 19.648 0 0 0 4.581.536c.394 0 .789 0 1.183-.016 1.725-.053 3.548-.214 5.238-.617 2.038-.484 3.817-2.011 4.019-5.29.058-.947.093-1.896.084-2.845.013-.506.152-3.576-.1-5.456zm-3.71 9.123h-2.845v-7.82c0-1.557-.69-2.354-2.069-2.354-1.524 0-2.289 1.016-2.289 2.895v4.159H9.521V7.157c0-1.879-.765-2.895-2.289-2.895-1.379 0-2.069.797-2.069 2.354v7.82H2.318V7.053c0-1.557.398-2.795 1.194-3.715.82-.922 1.895-1.394 3.228-1.394 1.544 0 2.714.588 3.497 1.764L11.813 6.1l1.576-2.392c.783-1.176 1.953-1.764 3.497-1.764 1.333 0 2.408.472 3.228 1.394.796.92 1.194 2.158 1.194 3.715v9.383z"/></svg>
