<svg xmlns="http://www.w3.org/2000/svg" width="20" height="20" viewBox="0 0 24 24" fill="currentColor"><path d="M12.29 0a12.004 12.004 0 0 0-4.478 23.144c.142-.357.313-.852.404-1.32.098-.505.596-3.08.596-3.08a2.636 2.636 0 0 1-.219-1.095c0-1.026.595-1.791 1.336-1.791.63 0 .934.473.934 1.04 0 .634-.403 1.581-.612 2.458-.174.735.369 1.334 1.094 1.334 1.313 0 2.192-1.684 2.192-3.676 0-1.516-1.02-2.651-2.878-2.651-2.097 0-3.403 1.565-3.403 3.317 0 .603.178 1.028.455 1.357a.462.462 0 0 1 .133.44c-.043.182-.143.621-.162.708-.026.114-.104.155-.24.093-1.289-.525-1.885-1.932-1.885-3.518 0-2.614 2.206-5.752 6.588-5.752 3.522 0 5.832 2.55 5.832 5.283 0 3.622-2.013 6.326-4.981 6.326-.996 0-1.934-.54-2.254-1.152 0 0-.536 2.13-.649 2.536a7.812 7.812 0 0 1-.9 1.9A12.004 12.004 0 1 0 12.29 0z"/></svg>
